HIERARCHY
ROOT Hips
{
	OFFSET 0.053599 88.859886 3.107447
	CHANNELS 6 Xposition Yposition Zposition Zrotation Yrotation Xrotation 
	JOINT Spine
	{
		OFFSET -0.000000 8.814246 -2.080107
		CHANNELS 3 Zrotation Yrotation Xrotation
		JOINT Spine1
		{
			OFFSET 0.000000 8.844141 0.000000
			CHANNELS 3 Zrotation Yrotation Xrotation
			JOINT Spine2
			{
				OFFSET -0.000000 11.682268 0.000000
				CHANNELS 3 Zrotation Yrotation Xrotation
				JOINT Spine3
				{
					OFFSET 0.000000 11.746700 0.000000
					CHANNELS 3 Zrotation Yrotation Xrotation
					JOINT Neck
					{
						OFFSET -0.000000 17.658264 -0.000000
						CHANNELS 3 Zrotation Yrotation Xrotation
						JOINT Neck1
						{
							OFFSET -0.000000 5.101515 -0.000000
							CHANNELS 3 Zrotation Yrotation Xrotation
							JOINT Head
							{
								OFFSET 0.000000 5.101515 0.000000
								CHANNELS 3 Zrotation Yrotation Xrotation
								JOINT HeadEnd
								{
									OFFSET 0.000000 11.655085 0.000000
									CHANNELS 3 Zrotation Yrotation Xrotation
									End Site
									{
										OFFSET 0.000000 0.000000 0.000000
									}
								}
							}
						}
					}
					JOINT RightShoulder
					{
						OFFSET -2.625389 11.175210 0.000000
						CHANNELS 3 Zrotation Yrotation Xrotation
						JOINT RightArm
						{
							OFFSET -0.000000 10.434715 -0.000000
							CHANNELS 3 Zrotation Yrotation Xrotation
							JOINT RightForeArm
							{
								OFFSET -0.000000 29.628420 0.000000
								CHANNELS 3 Zrotation Yrotation Xrotation
								JOINT RightHand
								{
									OFFSET -0.000000 22.857611 0.000000
									CHANNELS 3 Zrotation Yrotation Xrotation
									JOINT RightHandThumb1
									{
										OFFSET -2.867323 3.959563 2.944291
										CHANNELS 3 Zrotation Yrotation Xrotation
										JOINT RightHandThumb2
										{
											OFFSET 0.000000 3.350399 0.000000
											CHANNELS 3 Zrotation Yrotation Xrotation
											JOINT RightHandThumb3
											{
												OFFSET 0.000000 3.756509 -0.000000
												CHANNELS 3 Zrotation Yrotation Xrotation
												JOINT RightHandThumb4
												{
													OFFSET 0.000000 3.147345 0.000000
													CHANNELS 3 Zrotation Yrotation Xrotation
													End Site
													{
														OFFSET 0.000000 0.000000 0.000000
													}
												}
											}
										}
									}
									JOINT RightHandIndex1
									{
										OFFSET -0.086752 10.030893 2.345280
										CHANNELS 3 Zrotation Yrotation Xrotation
										JOINT RightHandIndex2
										{
											OFFSET -0.000000 4.061090 0.000000
											CHANNELS 3 Zrotation Yrotation Xrotation
											JOINT RightHandIndex3
											{
												OFFSET -0.000000 3.248873 0.000000
												CHANNELS 3 Zrotation Yrotation Xrotation
												JOINT RightHandIndex4
												{
													OFFSET 0.000000 2.639709 -0.000000
													CHANNELS 3 Zrotation Yrotation Xrotation
													End Site
													{
														OFFSET 0.000000 0.000000 0.000000
													}
												}
											}
										}
									}
									JOINT RightHandMiddle1
									{
										OFFSET 0.104102 9.502952 0.006768
										CHANNELS 3 Zrotation Yrotation Xrotation
										JOINT RightHandMiddle2
										{
											OFFSET 0.000000 4.568727 0.000000
											CHANNELS 3 Zrotation Yrotation Xrotation
											JOINT RightHandMiddle3
											{
												OFFSET 0.000000 3.654981 -0.000000
												CHANNELS 3 Zrotation Yrotation Xrotation
												JOINT RightHandMiddle4
												{
													OFFSET -0.000000 2.741236 -0.000000
													CHANNELS 3 Zrotation Yrotation Xrotation
													End Site
													{
														OFFSET 0.000000 0.000000 0.000000
													}
												}
											}
										}
									}
									JOINT RightHandRing1
									{
										OFFSET 0.086752 8.921708 -2.267442
										CHANNELS 3 Zrotation Yrotation Xrotation
										JOINT RightHandRing2
										{
											OFFSET -0.000000 4.061090 0.000000
											CHANNELS 3 Zrotation Yrotation Xrotation
											JOINT RightHandRing3
											{
												OFFSET 0.000000 3.654981 -0.000000
												CHANNELS 3 Zrotation Yrotation Xrotation
												JOINT RightHandRing4
												{
													OFFSET 0.000000 2.741236 -0.000000
													CHANNELS 3 Zrotation Yrotation Xrotation
													End Site
													{
														OFFSET 0.000000 0.000000 0.000000
													}
												}
											}
										}
									}
									JOINT RightHandPinky1
									{
										OFFSET -0.173504 7.976997 -4.467199
										CHANNELS 3 Zrotation Yrotation Xrotation
										JOINT RightHandPinky2
										{
											OFFSET 0.000000 3.350399 -0.000000
											CHANNELS 3 Zrotation Yrotation Xrotation
											JOINT RightHandPinky3
											{
												OFFSET -0.000000 2.842763 0.000000
												CHANNELS 3 Zrotation Yrotation Xrotation
												JOINT RightHandPinky4
												{
													OFFSET -0.000000 2.639709 0.000000
													CHANNELS 3 Zrotation Yrotation Xrotation
													End Site
													{
														OFFSET 0.000000 0.000000 0.000000
													}
												}
											}
										}
									}
									JOINT RightForeArmEnd
									{
										OFFSET 0.000000 0.000000 0.000000
										CHANNELS 3 Zrotation Yrotation Xrotation
										End Site
										{
											OFFSET 0.000000 0.000000 0.000000
										}
									}
								}
								JOINT RightArmEnd
								{
									OFFSET 0.000000 0.000000 0.000000
									CHANNELS 3 Zrotation Yrotation Xrotation
									End Site
									{
										OFFSET 0.000000 0.000000 0.000000
									}
								}
							}
						}
					}
					JOINT LeftShoulder
					{
						OFFSET 2.625389 11.175210 0.000000
						CHANNELS 3 Zrotation Yrotation Xrotation
						JOINT LeftArm
						{
							OFFSET 0.000000 10.813635 -0.000000
							CHANNELS 3 Zrotation Yrotation Xrotation
							JOINT LeftForeArm
							{
								OFFSET 0.000000 28.724781 0.000000
								CHANNELS 3 Zrotation Yrotation Xrotation
								JOINT LeftHand
								{
									OFFSET 0.644384 25.716167 -0.328871
									CHANNELS 3 Zrotation Yrotation Xrotation
									JOINT LeftHandThumb1
									{
										OFFSET 2.867323 3.959563 2.944291
										CHANNELS 3 Zrotation Yrotation Xrotation
										JOINT LeftHandThumb2
										{
											OFFSET 0.000000 3.350399 0.000000
											CHANNELS 3 Zrotation Yrotation Xrotation
											JOINT LeftHandThumb3
											{
												OFFSET -0.000000 3.756509 0.000000
												CHANNELS 3 Zrotation Yrotation Xrotation
												JOINT LeftHandThumb4
												{
													OFFSET -0.000000 3.100000 0.000000
													CHANNELS 3 Zrotation Yrotation Xrotation
													End Site
													{
														OFFSET 0.000000 0.000000 0.000000
													}
												}
											}
										}
									}
									JOINT LeftHandIndex1
									{
										OFFSET 0.086752 10.030893 2.345280
										CHANNELS 3 Zrotation Yrotation Xrotation
										JOINT LeftHandIndex2
										{
											OFFSET -0.000000 4.061090 -0.000000
											CHANNELS 3 Zrotation Yrotation Xrotation
											JOINT LeftHandIndex3
											{
												OFFSET 0.000000 3.248873 -0.000000
												CHANNELS 3 Zrotation Yrotation Xrotation
												JOINT LeftHandIndex4
												{
													OFFSET 0.000000 2.639709 -0.000000
													CHANNELS 3 Zrotation Yrotation Xrotation
													End Site
													{
														OFFSET 0.000000 0.000000 0.000000
													}
												}
											}
										}
									}
									JOINT LeftHandMiddle1
									{
										OFFSET -0.104102 9.502952 0.006768
										CHANNELS 3 Zrotation Yrotation Xrotation
										JOINT LeftHandMiddle2
										{
											OFFSET -0.000000 4.568727 -0.000000
											CHANNELS 3 Zrotation Yrotation Xrotation
											JOINT LeftHandMiddle3
											{
												OFFSET 0.000000 3.654981 0.000000
												CHANNELS 3 Zrotation Yrotation Xrotation
												JOINT LeftHandMiddle4
												{
													OFFSET 0.000000 2.741236 -0.000000
													CHANNELS 3 Zrotation Yrotation Xrotation
													End Site
													{
														OFFSET 0.000000 0.000000 0.000000
													}
												}
											}
										}
									}
									JOINT LeftHandRing1
									{
										OFFSET -0.086752 8.921708 -2.267442
										CHANNELS 3 Zrotation Yrotation Xrotation
										JOINT LeftHandRing2
										{
											OFFSET 0.000000 4.061090 0.000000
											CHANNELS 3 Zrotation Yrotation Xrotation
											JOINT LeftHandRing3
											{
												OFFSET 0.000000 3.654981 0.000000
												CHANNELS 3 Zrotation Yrotation Xrotation
												JOINT LeftHandRing4
												{
													OFFSET 0.000000 2.741236 0.000000
													CHANNELS 3 Zrotation Yrotation Xrotation
													End Site
													{
														OFFSET 0.000000 0.000000 0.000000
													}
												}
											}
										}
									}
									JOINT LeftHandPinky1
									{
										OFFSET 0.173504 7.976997 -4.467199
										CHANNELS 3 Zrotation Yrotation Xrotation
										JOINT LeftHandPinky2
										{
											OFFSET -0.000000 3.350399 -0.000000
											CHANNELS 3 Zrotation Yrotation Xrotation
											JOINT LeftHandPinky3
											{
												OFFSET 0.000000 2.842763 0.000000
												CHANNELS 3 Zrotation Yrotation Xrotation
												JOINT LeftHandPinky4
												{
													OFFSET -0.000000 2.639709 -0.000000
													CHANNELS 3 Zrotation Yrotation Xrotation
													End Site
													{
														OFFSET 0.000000 0.000000 0.000000
													}
												}
											}
										}
									}
									JOINT LeftForeArmEnd
									{
										OFFSET 0.000000 0.000000 0.000000
										CHANNELS 3 Zrotation Yrotation Xrotation
										End Site
										{
											OFFSET 0.000000 0.000000 0.000000
										}
									}
								}
								JOINT LeftArmEnd
								{
									OFFSET 0.000000 0.000000 0.000000
									CHANNELS 3 Zrotation Yrotation Xrotation
									End Site
									{
										OFFSET 0.000000 0.000000 0.000000
									}
								}
							}
						}
					}
				}
			}
		}
	}
	JOINT RightUpLeg
	{
		OFFSET -11.289943 0.000000 0.000000
		CHANNELS 3 Zrotation Yrotation Xrotation
		JOINT RightLeg
		{
			OFFSET 0.000000 -38.200325 0.000000
			CHANNELS 3 Zrotation Yrotation Xrotation
			JOINT RightFoot
			{
				OFFSET -0.000000 -39.900856 -0.000000
				CHANNELS 3 Zrotation Yrotation Xrotation
				JOINT RightToeBase
				{
					OFFSET 0.000000 0.000000 15.261641
					CHANNELS 3 Zrotation Yrotation Xrotation
					JOINT RightToeBaseEnd
					{
						OFFSET 0.000000 0.000000 7.370709
						CHANNELS 3 Zrotation Yrotation Xrotation
						End Site
						{
							OFFSET 0.000000 0.000000 0.000000
						}
					}
				}
				JOINT RightLegEnd
				{
					OFFSET 0.000000 0.000000 0.000000
					CHANNELS 3 Zrotation Yrotation Xrotation
					End Site
					{
						OFFSET 0.000000 0.000000 0.000000
					}
				}
			}
			JOINT RightUpLegEnd
			{
				OFFSET 0.000000 0.000000 0.000000
				CHANNELS 3 Zrotation Yrotation Xrotation
				End Site
				{
					OFFSET 0.000000 0.000000 0.000000
				}
			}
		}
	}
	JOINT LeftUpLeg
	{
		OFFSET 11.315661 -0.000000 0.000000
		CHANNELS 3 Zrotation Yrotation Xrotation
		JOINT LeftLeg
		{
			OFFSET -0.000000 -38.200325 -0.000000
			CHANNELS 3 Zrotation Yrotation Xrotation
			JOINT LeftFoot
			{
				OFFSET 0.000000 -39.900856 -0.000000
				CHANNELS 3 Zrotation Yrotation Xrotation
				JOINT LeftToeBase
				{
					OFFSET -0.000000 -0.000000 15.261641
					CHANNELS 3 Zrotation Yrotation Xrotation
					JOINT LeftToeBaseEnd
					{
						OFFSET 0.000000 -0.000000 7.539996
						CHANNELS 3 Zrotation Yrotation Xrotation
						End Site
						{
							OFFSET 0.000000 0.000000 0.000000
						}
					}
				}
				JOINT LeftLegEnd
				{
					OFFSET 0.000000 0.000000 0.000000
					CHANNELS 3 Zrotation Yrotation Xrotation
					End Site
					{
						OFFSET 0.000000 0.000000 0.000000
					}
				}
			}
			JOINT LeftUpLegEnd
			{
				OFFSET 0.000000 0.000000 0.000000
				CHANNELS 3 Zrotation Yrotation Xrotation
				End Site
				{
					OFFSET 0.000000 0.000000 0.000000
				}
			}
		}
	}
}
MOTION
Frames: 5
Frame Time: 0.016667
-0.201898 88.493217 3.202392 0.235362 0.986108 -10.724219 1.026614 0.205826 7.386456 -0.531804 0.334877 3.358857 -1.028113 1.006217 5.673373 -1.549214 0.656736 5.640108 1.771058 -0.586051 6.936932 0.275441 -0.512282 -2.230146 0.166857 -0.767211 -20.374592 0.000000 0.000000 0.000000 91.923790 -0.049234 9.782683 69.059135 -20.240412 1.620644 0.030732 19.855919 35.219727 1.576745 11.407982 -7.721640 19.487581 30.200558 62.473202 -8.124625 -11.448333 -19.430336 -6.022152 -7.516060 -13.386970 0.000000 0.000000 0.000000 8.508554 -10.556305 3.022577 8.205621 0.396953 1.202871 7.902148 -0.023624 1.210017 0.000000 0.000000 0.000000 8.627351 -4.987697 0.817365 7.208480 0.472883 0.407724 7.807234 -0.025211 0.376111 0.000000 0.000000 0.000000 11.142293 2.578818 -1.023718 8.735417 -0.937327 -0.677022 8.605984 0.021934 -0.464931 0.000000 0.000000 0.000000 11.402950 10.942646 -3.744246 9.530329 -1.793205 -1.875206 9.151125 0.141389 -1.458596 0.000000 0.000000 0.000000 0.000000 0.000000 0.000000 0.000000 0.000000 0.000000 -90.052757 0.156611 3.876429 -72.192184 8.186709 -9.670194 -0.588124 -16.702946 71.213837 -0.607505 -9.289982 -10.073292 -19.032461 -30.363586 62.777290 7.758883 10.450334 -18.080740 5.651211 7.075363 -12.711409 0.000000 0.000000 0.000000 -11.433462 -6.821671 5.340685 -7.762998 0.453801 -0.668274 -7.811182 -0.016524 -0.679512 0.000000 0.000000 0.000000 -12.509916 -1.370437 2.040730 -8.137938 0.465453 -0.349769 -8.472542 -0.015812 -0.272371 0.000000 0.000000 0.000000 -19.001081 7.464607 -1.518867 -12.231277 -0.944834 0.657107 -12.103732 0.029175 0.527794 0.000000 0.000000 0.000000 -24.378750 16.610785 -6.263388 -15.379699 -1.672435 2.321462 -14.798987 0.294028 2.056580 0.000000 0.000000 0.000000 0.000000 0.000000 0.000000 0.000000 0.000000 0.000000 -0.532022 -10.283428 14.798793 -0.069705 -0.657493 5.649486 -3.503830 -7.844884 16.450916 -0.732169 0.819496 -18.440016 0.000000 0.000000 0.000000 0.000000 0.000000 0.000000 0.000000 0.000000 0.000000 -1.513082 -6.421042 8.676581 0.045944 0.318999 11.424282 3.699895 -2.305850 15.877547 0.224491 -0.420134 -20.632935 0.000000 0.000000 0.000000 0.000000 0.000000 0.000000 0.000000 0.000000 0.000000 
-0.205167 88.492958 3.241761 0.211698 0.970325 -10.750744 1.030145 0.202413 7.404355 -0.513646 0.326467 3.343606 -1.046722 1.007549 5.726051 -1.539953 0.647098 5.638365 1.767763 -0.602692 6.933980 0.272510 -0.526078 -2.225429 0.163461 -0.765992 -20.355995 0.000000 0.000000 0.000000 91.956337 -0.049385 9.817273 68.980309 -20.518810 1.846392 0.025218 19.714085 34.575302 1.904458 11.461788 -7.770514 19.545336 30.183649 62.421921 -8.175083 -11.556238 -19.588825 -6.065142 -7.587522 -13.500752 0.000000 0.000000 0.000000 8.924019 -10.623092 2.768685 8.438663 0.389693 1.231894 8.135483 -0.030884 1.234911 0.000000 0.000000 0.000000 8.982294 -5.047301 0.636387 7.424757 0.469328 0.419592 8.018252 -0.028079 0.385392 0.000000 0.000000 0.000000 11.404314 2.529136 -1.097475 8.919825 -0.932076 -0.693277 8.793455 0.025453 -0.477661 0.000000 0.000000 0.000000 11.579934 10.899645 -3.709137 9.666687 -1.777323 -1.926160 9.292086 0.153620 -1.503606 0.000000 0.000000 0.000000 0.000000 0.000000 0.000000 0.000000 0.000000 0.000000 -90.061401 0.158356 3.946604 -72.246284 8.498759 -9.682469 -0.591234 -16.610567 70.590424 -1.095025 -9.334925 -10.353824 -19.090803 -30.345329 62.716679 7.818805 10.568227 -18.263220 5.699677 7.152424 -12.837194 0.000000 0.000000 0.000000 -11.824876 -6.745591 5.068066 -7.996631 0.451342 -0.676293 -8.041782 -0.018328 -0.685850 0.000000 0.000000 0.000000 -12.831775 -1.309384 1.829791 -8.352110 0.464474 -0.353100 -8.689358 -0.016542 -0.275161 0.000000 0.000000 0.000000 -19.211170 7.497946 -1.642017 -12.402541 -0.942461 0.659547 -12.274781 0.030329 0.529627 0.000000 0.000000 0.000000 -24.484217 16.620228 -6.299067 -15.484422 -1.666465 2.324668 -14.908082 0.297180 2.058856 0.000000 0.000000 0.000000 0.000000 0.000000 0.000000 0.000000 0.000000 0.000000 -0.520557 -10.283409 14.866487 -0.069642 -0.660507 5.615820 -3.508259 -7.832826 16.436428 -0.734910 0.823818 -18.418228 0.000000 0.000000 0.000000 0.000000 0.000000 0.000000 0.000000 0.000000 0.000000 -1.492633 -6.422707 8.727529 0.045846 0.320366 11.437251 3.693452 -2.305634 15.843372 0.225092 -0.420595 -20.624779 0.000000 0.000000 0.000000 0.000000 0.000000 0.000000 0.000000 0.000000 0.000000 
-0.208699 88.492561 3.281890 0.186728 0.953879 -10.780752 1.034465 0.198440 7.422119 -0.495760 0.318358 3.329859 -1.061327 1.006245 5.776539 -1.530655 0.637215 5.634264 1.770097 -0.622258 6.937429 0.271594 -0.538807 -2.216168 0.161236 -0.765550 -20.337416 0.000000 0.000000 0.000000 91.992966 -0.048606 9.852453 68.903091 -20.802010 2.073701 0.020099 19.567814 33.923710 2.183854 11.522448 -7.812682 19.591368 30.170511 62.382313 -8.213903 -11.641127 -19.712360 -6.098662 -7.644135 -13.590422 0.000000 0.000000 0.000000 9.241254 -10.673162 2.552858 8.621414 0.383904 1.255897 8.318103 -0.036647 1.255420 0.000000 0.000000 0.000000 9.246242 -5.091118 0.482535 7.593169 0.466348 0.429402 8.180348 -0.030444 0.393050 0.000000 0.000000 0.000000 11.590053 2.493498 -1.155151 9.060557 -0.927649 -0.706529 8.936033 0.028316 -0.488228 0.000000 0.000000 0.000000 11.697832 10.868852 -3.671538 9.768888 -1.763963 -1.968670 9.398172 0.163610 -1.541610 0.000000 0.000000 0.000000 0.000000 0.000000 0.000000 0.000000 0.000000 0.000000 -90.073296 0.161118 4.015330 -72.282188 8.836399 -9.668491 -0.590462 -16.496307 69.932236 -1.494658 -9.329404 -10.637782 -19.133610 -30.331686 62.671150 7.863777 10.656382 -18.400253 5.735573 7.209543 -12.931427 0.000000 0.000000 0.000000 -12.099765 -6.691065 4.854084 -8.163870 0.449623 -0.683219 -8.206476 -0.019381 -0.691199 0.000000 0.000000 0.000000 -13.044316 -1.268220 1.662818 -8.499346 0.463841 -0.355739 -8.839399 -0.016969 -0.277517 0.000000 0.000000 0.000000 -19.310869 7.514000 -1.738944 -12.502627 -0.940863 0.660915 -12.373770 0.030925 0.530731 0.000000 0.000000 0.000000 -24.485344 16.620178 -6.326875 -15.523460 -1.663035 2.324371 -14.951131 0.298322 2.058384 0.000000 0.000000 0.000000 0.000000 0.000000 0.000000 0.000000 0.000000 0.000000 -0.509208 -10.283709 14.939491 -0.069513 -0.663144 5.577798 -3.512231 -7.819493 16.423229 -0.738174 0.828202 -18.394947 0.000000 0.000000 0.000000 0.000000 0.000000 0.000000 0.000000 0.000000 0.000000 -1.471104 -6.429879 8.782403 0.045889 0.321847 11.451913 3.687290 -2.309398 15.807076 0.225111 -0.421233 -20.617508 0.000000 0.000000 0.000000 0.000000 0.000000 0.000000 0.000000 0.000000 0.000000 
-0.212533 88.491936 3.322696 0.160919 0.936160 -10.813010 1.038253 0.194078 7.439497 -0.478319 0.310285 3.318645 -1.071924 1.001103 5.823334 -1.521107 0.626659 5.627811 1.776372 -0.642748 6.950873 0.272717 -0.548795 -2.200760 0.159186 -0.766098 -20.318167 0.000000 0.000000 0.000000 92.035126 -0.047778 9.887928 68.822617 -21.099827 2.305431 0.015750 19.418346 33.266022 2.411014 11.581136 -7.851288 19.626320 30.161062 62.353996 -8.241395 -11.704098 -19.802139 -6.123111 -7.686746 -13.657100 0.000000 0.000000 0.000000 9.464488 -10.707385 2.370572 8.752602 0.379602 1.275135 8.448812 -0.040905 1.271766 0.000000 0.000000 0.000000 9.423491 -5.120074 0.352968 7.712755 0.463941 0.437269 8.292361 -0.032320 0.399181 0.000000 0.000000 0.000000 11.704147 2.470875 -1.198285 9.157522 -0.924098 -0.717040 9.033247 0.030529 -0.496795 0.000000 0.000000 0.000000 11.761022 10.848959 -3.632285 9.836905 -1.753275 -2.003496 9.469196 0.171282 -1.573303 0.000000 0.000000 0.000000 0.000000 0.000000 0.000000 0.000000 0.000000 0.000000 -90.089180 0.165682 4.081911 -72.300728 9.202617 -9.631081 -0.586981 -16.362024 69.233345 -1.801313 -9.278856 -10.925280 -19.160950 -30.322794 62.640823 7.893405 10.714932 -18.491304 5.758682 7.246662 -12.994170 0.000000 0.000000 0.000000 -12.257694 -6.658648 4.695515 -8.265490 0.448414 -0.690255 -8.306046 -0.019912 -0.696629 0.000000 0.000000 0.000000 -13.147704 -1.247148 1.537599 -8.579820 0.463470 -0.358135 -8.922957 -0.017190 -0.279834 0.000000 0.000000 0.000000 -19.298733 7.512546 -1.810916 -12.530697 -0.939919 0.661760 -12.399258 0.031072 0.531557 0.000000 0.000000 0.000000 -24.379143 16.610737 -6.346947 -15.495252 -1.661934 2.322057 -14.926389 0.297622 2.056459 0.000000 0.000000 0.000000 0.000000 0.000000 0.000000 0.000000 0.000000 0.000000 -0.497583 -10.282557 15.014635 -0.069306 -0.665348 5.537647 -3.515802 -7.803958 16.411570 -0.741773 0.832758 -18.371155 0.000000 0.000000 0.000000 0.000000 0.000000 0.000000 0.000000 0.000000 0.000000 -1.448886 -6.441724 8.839009 0.046114 0.323415 11.469893 3.681861 -2.314655 15.768883 0.224517 -0.421829 -20.611549 0.000000 0.000000 0.000000 0.000000 0.000000 0.000000 0.000000 0.000000 0.000000 
-0.216520 88.490952 3.364282 0.135039 0.916349 -10.846889 1.040703 0.189482 7.456476 -0.461304 0.302200 3.309718 -1.078603 0.992185 5.866448 -1.511174 0.615414 5.619165 1.786907 -0.663617 6.972602 0.275805 -0.555507 -2.180993 0.156706 -0.767584 -20.297380 0.000000 0.000000 0.000000 92.082802 -0.047237 9.923165 68.734581 -21.412577 2.540022 0.012704 19.265633 32.608776 2.591046 11.625772 -7.889243 19.651171 30.155209 62.336605 -8.257752 -11.746669 -19.860092 -6.138833 -7.716481 -13.702055 0.000000 0.000000 0.000000 9.603186 -10.728002 2.216187 8.837810 0.376738 1.289973 8.533285 -0.043746 1.284262 0.000000 0.000000 0.000000 9.523431 -5.135897 0.243282 7.788012 0.462115 0.443363 8.359523 -0.033736 0.403947 0.000000 0.000000 0.000000 11.755185 2.459910 -1.231237 9.214763 -0.921437 -0.725277 9.089067 0.032136 -0.503638 0.000000 0.000000 0.000000 11.777374 10.838700 -3.594999 9.872965 -1.745255 -2.031995 9.507310 0.176751 -1.599734 0.000000 0.000000 0.000000 0.000000 0.000000 0.000000 0.000000 0.000000 0.000000 -90.109459 0.173161 4.145094 -72.305504 9.590753 -9.574163 -0.582537 -16.207344 68.488861 -2.010429 -9.189972 -11.209510 -19.174929 -30.318235 62.624443 7.908785 10.747663 -18.541149 5.770211 7.266397 -13.028956 0.000000 0.000000 0.000000 -12.312201 -6.646418 4.583379 -8.312259 0.447447 -0.698174 -8.351494 -0.020219 -0.702837 0.000000 0.000000 0.000000 -13.155458 -1.243689 1.447601 -8.603847 0.463256 -0.360703 -8.950206 -0.017323 -0.282429 0.000000 0.000000 0.000000 -19.189814 7.496224 -1.862628 -12.497161 -0.939397 0.662708 -12.361679 0.030982 0.532590 0.000000 0.000000 0.000000 -24.181303 16.593863 -6.360579 -15.409435 -1.662429 2.319710 -14.843849 0.295714 2.054661 0.000000 0.000000 0.000000 0.000000 0.000000 0.000000 0.000000 0.000000 0.000000 -0.485256 -10.277987 15.089550 -0.069041 -0.667272 5.497364 -3.518860 -7.786934 16.400324 -0.745533 0.837679 -18.347334 0.000000 0.000000 0.000000 0.000000 0.000000 0.000000 0.000000 0.000000 0.000000 -1.425570 -6.456214 8.896610 0.046575 0.325166 11.490651 3.676255 -2.320497 15.728189 0.223478 -0.422563 -20.606295 0.000000 0.000000 0.000000 0.000000 0.000000 0.000000 0.000000 0.000000 0.000000 
